<?xml version="1.0" standalone="no"?><svg xmlns="http://www.w3.org/2000/svg" viewBox="0 0 1440 320"><path fill="#383838" fill-opacity="1" d="M0,288L6.2,240C12.3,192,25,96,37,96C49.2,96,62,192,74,218.7C86.2,245,98,203,111,192C123.1,181,135,203,148,181.3C160,160,172,96,185,101.3C196.9,107,209,181,222,192C233.8,203,246,149,258,106.7C270.8,64,283,32,295,37.3C307.7,43,320,85,332,133.3C344.6,181,357,235,369,218.7C381.5,203,394,117,406,122.7C418.5,128,431,224,443,240C455.4,256,468,192,480,186.7C492.3,181,505,235,517,250.7C529.2,267,542,245,554,240C566.2,235,578,245,591,218.7C603.1,192,615,128,628,90.7C640,53,652,43,665,69.3C676.9,96,689,160,702,197.3C713.8,235,726,245,738,245.3C750.8,245,763,235,775,202.7C787.7,171,800,117,812,112C824.6,107,837,149,849,160C861.5,171,874,149,886,165.3C898.5,181,911,235,923,229.3C935.4,224,948,160,960,154.7C972.3,149,985,203,997,202.7C1009.2,203,1022,149,1034,133.3C1046.2,117,1058,139,1071,149.3C1083.1,160,1095,160,1108,165.3C1120,171,1132,181,1145,160C1156.9,139,1169,85,1182,58.7C1193.8,32,1206,32,1218,69.3C1230.8,107,1243,181,1255,218.7C1267.7,256,1280,256,1292,218.7C1304.6,181,1317,107,1329,96C1341.5,85,1354,139,1366,165.3C1378.5,192,1391,192,1403,192C1415.4,192,1428,192,1434,192L1440,192L1440,0L1433.8,0C1427.7,0,1415,0,1403,0C1390.8,0,1378,0,1366,0C1353.8,0,1342,0,1329,0C1316.9,0,1305,0,1292,0C1280,0,1268,0,1255,0C1243.1,0,1231,0,1218,0C1206.2,0,1194,0,1182,0C1169.2,0,1157,0,1145,0C1132.3,0,1120,0,1108,0C1095.4,0,1083,0,1071,0C1058.5,0,1046,0,1034,0C1021.5,0,1009,0,997,0C984.6,0,972,0,960,0C947.7,0,935,0,923,0C910.8,0,898,0,886,0C873.8,0,862,0,849,0C836.9,0,825,0,812,0C800,0,788,0,775,0C763.1,0,751,0,738,0C726.2,0,714,0,702,0C689.2,0,677,0,665,0C652.3,0,640,0,628,0C615.4,0,603,0,591,0C578.5,0,566,0,554,0C541.5,0,529,0,517,0C504.6,0,492,0,480,0C467.7,0,455,0,443,0C430.8,0,418,0,406,0C393.8,0,382,0,369,0C356.9,0,345,0,332,0C320,0,308,0,295,0C283.1,0,271,0,258,0C246.2,0,234,0,222,0C209.2,0,197,0,185,0C172.3,0,160,0,148,0C135.4,0,123,0,111,0C98.5,0,86,0,74,0C61.5,0,49,0,37,0C24.6,0,12,0,6,0L0,0Z"></path></svg>