<?xml version="1.0" standalone="no"?><svg xmlns="http://www.w3.org/2000/svg" viewBox="0 0 1440 320"><path fill="#383838" fill-opacity="0.7" d="M0,128L30,154.7C60,181,120,235,180,229.3C240,224,300,160,360,128C420,96,480,96,540,112C600,128,660,160,720,154.7C780,149,840,107,900,90.7C960,75,1020,85,1080,106.7C1140,128,1200,160,1260,160C1320,160,1380,128,1410,112L1440,96L1440,320L1410,320C1380,320,1320,320,1260,320C1200,320,1140,320,1080,320C1020,320,960,320,900,320C840,320,780,320,720,320C660,320,600,320,540,320C480,320,420,320,360,320C300,320,240,320,180,320C120,320,60,320,30,320L0,320Z"></path></svg>